<svg width="24" height="24" viewBox="0 0 24 24" fill="none" xmlns="http://www.w3.org/2000/svg">
<path d="M13.0095 2.92024L18.9095 5.54024C20.6095 6.29024 20.6095 7.53024 18.9095 8.28024L13.0095 10.9002C12.3395 11.2002 11.2395 11.2002 10.5695 10.9002L4.66953 8.28024C2.96953 7.53024 2.96953 6.29024 4.66953 5.54024L10.5695 2.92024C11.2395 2.62024 12.3395 2.62024 13.0095 2.92024Z" stroke="#292D32" stroke-width="1.5" stroke-linecap="round" stroke-linejoin="round"/>
<path d="M3 11.0002C3 11.8402 3.63 12.8102 4.4 13.1502L11.19 16.1702C11.71 16.4002 12.3 16.4002 12.81 16.1702L19.6 13.1502C20.37 12.8102 21 11.8402 21 11.0002" stroke="#292D32" stroke-width="1.5" stroke-linecap="round" stroke-linejoin="round"/>
<path d="M3 16.0002C3 16.9302 3.55 17.7702 4.4 18.1502L11.19 21.1702C11.71 21.4002 12.3 21.4002 12.81 21.1702L19.6 18.1502C20.45 17.7702 21 16.9302 21 16.0002" stroke="#292D32" stroke-width="1.5" stroke-linecap="round" stroke-linejoin="round"/>
</svg>
